<svg width="32" height="32" viewBox="0 0 32 32" fill="none" xmlns="http://www.w3.org/2000/svg">
    <path fill-rule="evenodd" clip-rule="evenodd" d="M14.5033 0.836853C18.3146 0.836853 21.4153 3.93758 21.4153 7.74883V9.20103C21.4153 9.84611 20.8918 10.3696 20.2467 10.3696C19.6016 10.3696 19.0781 9.84611 19.0781 9.20103V7.74883C19.0781 5.22462 17.026 3.17409 14.5033 3.17409H6.9073C4.38777 3.17409 2.33723 5.22462 2.33723 7.74883V25.0895C2.33723 27.6122 4.38777 29.6627 6.9073 29.6627H14.5205C17.0322 29.6627 19.0781 27.6184 19.0781 25.1067V23.6373C19.0781 22.9923 19.6016 22.4687 20.2467 22.4687C20.8918 22.4687 21.4153 22.9923 21.4153 23.6373V25.1067C21.4153 28.9086 18.3208 32 14.5205 32H6.9073C3.09917 32 0 28.9008 0 25.0895V7.74883C0 3.93758 3.09917 0.836853 6.9073 0.836853H14.5033ZM27.0934 11.049L31.6557 15.591C31.6964 15.6314 31.7328 15.6734 31.7661 15.7179L31.6557 15.591C31.7109 15.6455 31.7599 15.7049 31.8025 15.7684C31.8213 15.7971 31.8394 15.8268 31.8561 15.8573C31.8697 15.8812 31.8823 15.9061 31.8939 15.9314C31.9037 15.9538 31.9131 15.9762 31.9219 15.9989C31.9336 16.0285 31.9439 16.059 31.9529 16.0898C31.9597 16.1141 31.966 16.1383 31.9715 16.1629C31.9784 16.1926 31.9839 16.2226 31.9882 16.2528C31.9907 16.2724 31.9931 16.2929 31.9949 16.3136C31.9985 16.3492 32 16.3837 32 16.4184L31.9921 16.515L31.9889 16.5769C31.9885 16.5796 31.9881 16.5822 31.9878 16.5848L32 16.4184C32 16.5049 31.9904 16.5905 31.9718 16.6738C31.966 16.6985 31.9597 16.7227 31.9527 16.7466C31.9439 16.7779 31.9336 16.8083 31.9221 16.8383C31.9131 16.8606 31.9037 16.883 31.8936 16.905C31.8823 16.9307 31.8697 16.9556 31.8563 16.9801C31.8394 17.01 31.8213 17.0397 31.802 17.0685C31.791 17.0856 31.779 17.1025 31.7666 17.119C31.7295 17.1679 31.689 17.2138 31.6453 17.2563L27.0934 21.7894C26.8659 22.0169 26.5667 22.1306 26.2691 22.1306C25.9699 22.1306 25.6692 22.0169 25.4417 21.7863C24.9867 21.3282 24.9883 20.5896 25.4448 20.1346L28.0001 17.587H12.0692C11.4241 17.587 10.9005 17.0635 10.9005 16.4184C10.9005 15.7733 11.4241 15.2498 12.0692 15.2498H28.0032L25.4448 12.7038C24.9883 12.2488 24.9852 11.5102 25.4417 11.0521C25.8967 10.594 26.6353 10.594 27.0934 11.049Z" fill="currentColor"/>
</svg>